<svg id="visual" viewBox="0 0 960 540" width="960" height="540" xmlns="http://www.w3.org/2000/svg" xmlns:xlink="http://www.w3.org/1999/xlink" version="1.1"><rect x="0" y="0" width="960" height="540" fill="#2ea49e"></rect><path d="M0 347L16 358.3C32 369.7 64 392.3 96 411.3C128 430.3 160 445.7 192 439.7C224 433.7 256 406.3 288 386.3C320 366.3 352 353.7 384 361.3C416 369 448 397 480 406C512 415 544 405 576 393.2C608 381.3 640 367.7 672 376.5C704 385.3 736 416.7 768 427.5C800 438.3 832 428.7 864 410.3C896 392 928 365 944 351.5L960 338L960 541L944 541C928 541 896 541 864 541C832 541 800 541 768 541C736 541 704 541 672 541C640 541 608 541 576 541C544 541 512 541 480 541C448 541 416 541 384 541C352 541 320 541 288 541C256 541 224 541 192 541C160 541 128 541 96 541C64 541 32 541 16 541L0 541Z" fill="#ffffff" stroke-linecap="round" stroke-linejoin="miter"></path></svg>