<svg id="visual" viewBox="0 0 600 600" width="600" height="600" xmlns="http://www.w3.org/2000/svg" xmlns:xlink="http://www.w3.org/1999/xlink" version="1.1"><rect x="0" y="0" width="600" height="600" fill="#2ea49e"></rect><path d="M0 508L14.3 496.8C28.7 485.7 57.3 463.3 85.8 463.8C114.3 464.3 142.7 487.7 171.2 496.3C199.7 505 228.3 499 257 493.2C285.7 487.3 314.3 481.7 343 464.8C371.7 448 400.3 420 428.8 421.5C457.3 423 485.7 454 514.2 461.7C542.7 469.3 571.3 453.7 585.7 445.8L600 438L600 601L585.7 601C571.3 601 542.7 601 514.2 601C485.7 601 457.3 601 428.8 601C400.3 601 371.7 601 343 601C314.3 601 285.7 601 257 601C228.3 601 199.7 601 171.2 601C142.7 601 114.3 601 85.8 601C57.3 601 28.7 601 14.3 601L0 601Z" fill="#ffffff" stroke-linecap="round" stroke-linejoin="miter"></path></svg>